# xmcd
#
# Track frame offsets:
#	150
#	12255
#	25970
#	39941
#	52704
#	66151
#	80394
#	94466
#	108929
#	122161
#	135903
#	149176
#	162315
#	176870
#	189416
#	201700
#	215671
#	229513
#
# Disc length: 3256 seconds
#
# Revision: 1
# Processed by: cddbd v1.5.1PL0 Copyright (c) Steve Scherf et al.
# Submitted via: audiograbber 1.82.02
#
DISCID=020cb612
DTITLE=Various Artist - Preachin' The Blues
DYEAR=1900
DGENRE=General Blue
TTITLE0=Charly Patton - Revenue Man Blues
TTITLE1=Son House - Preachin' The Blues - Part 1
TTITLE2=Son House - My Black Mama - Part 1
TTITLE3=Skip James - 22 - 20 Blues
TTITLE4=Skip James - Devil Got My Woman
TTITLE5=Blind Wilie Johnson - Nobodys Fault But Mine
TTITLE6=Kokomo Arnold - Milk Cow Blues
TTITLE7=Barbeque Bob - Barbeque Blues
TTITLE8=Leroy Carr - When The Sun Goes Down
TTITLE9=Scrapper Blackwell - Kokomo Blues
TTITLE10=Tampa Red - You Can't Get That Stuff No More
TTITLE11=Leroy Carr - Mean Mistreater Mama
TTITLE12=Blind Boy Fuller - Baby You Gotta Change Your Mind
TTITLE13=Champion Jack Dupree - Gamblin' Man Blues
TTITLE14=Blind Boy Fuller - 15c A Day
TTITLE15=Blind Boy Fuller - I'm A Rattlesnake Daddy
TTITLE16=Lonnie Johnson - Life Saver Blues
TTITLE17=Mississippi Sheiks - Sitting On Top Of The World
EXTD=
EXTT0=
EXTT1=
EXTT2=
EXTT3=
EXTT4=
EXTT5=
EXTT6=
EXTT7=
EXTT8=
EXTT9=
EXTT10=
EXTT11=
EXTT12=
EXTT13=
EXTT14=
EXTT15=
EXTT16=
EXTT17=
PLAYORDER=
